<svg width="120" height="25" viewBox="0 0 120 25" fill="none" xmlns="http://www.w3.org/2000/svg">
<g clip-path="url(#clip0_84_1043)">
<path d="M5.414 12.5458L2.72 15.2301L0 12.5458L2.719 9.83765L5.414 12.5458ZM12 5.98606L16.64 10.6076L19.36 7.9004L12 0.593628L4.64 7.92431L7.36 10.6315L12 5.98606ZM21.281 9.83765L18.586 12.5458L21.305 15.254L24.023 12.5458L21.281 9.83765ZM12 19.1056L7.36 14.4602L4.64 17.1683L12 24.498L19.36 17.1673L16.64 14.4602L12 19.1056ZM12 15.2311L14.719 12.5219L12 9.83865L9.281 12.5458L12 15.2301V15.2311ZM40.594 15.51V15.4641C40.594 13.7131 39.656 12.8257 38.133 12.242C39.07 11.7291 39.867 10.8875 39.867 9.41733V9.37152C39.867 7.31674 38.203 5.98606 35.531 5.98606H29.414V19.0827H35.672C38.648 19.1056 40.594 17.8914 40.594 15.511V15.51ZM36.984 9.90837C36.984 10.8884 36.187 11.2849 34.898 11.2849H32.227V8.50697H35.086C36.305 8.50697 36.984 8.99701 36.984 9.86156V9.90837ZM37.711 15.1375C37.711 16.1175 36.938 16.5618 35.671 16.5618H32.227V13.6892H35.578C37.055 13.6892 37.711 14.2271 37.711 15.1135V15.1375ZM46.664 19.1056V5.98606H43.758V19.0827H46.664V19.1056V19.1056ZM62.227 19.1056V5.98606H59.367V14.0637L53.203 5.98606H50.531V19.0827H53.391V10.7719L59.766 19.1056H62.226H62.227ZM78.257 19.1056L72.61 5.91634H69.939L64.29 19.1056H67.267L68.462 16.1643H74.017L75.212 19.1056H78.259H78.257ZM72.984 13.6195H69.492L71.25 9.37152L72.984 13.6195V13.6195ZM92.063 19.1056V5.98606H89.203V14.0637L83.039 5.98606H80.367V19.0827H83.227V10.7719L89.602 19.1056H92.062H92.063ZM106.992 16.9811L105.141 15.1375C104.109 16.0707 103.195 16.6773 101.672 16.6773C99.422 16.6773 97.852 14.8098 97.852 12.5687V12.499C97.852 10.258 99.445 8.41435 101.672 8.41435C102.984 8.41435 104.016 8.97411 105.047 9.88446L106.898 7.75996C105.68 6.56972 104.203 5.72909 101.719 5.72909C97.688 5.72909 94.852 8.78686 94.852 12.499V12.5458C94.852 16.3038 97.734 19.2918 101.602 19.2918C104.133 19.3157 105.633 18.4283 106.992 16.9811V16.9811ZM119.344 19.1056V16.5379H112.195V13.7829H118.406V11.2151H112.195V8.55379H119.25V5.98606H109.336V19.0827H119.344V19.1056V19.1056Z" fill="black"/>
</g>
<defs>
<clipPath id="clip0_84_1043">
<rect width="120" height="23.9044" fill="white" transform="translate(0 0.593628)"/>
</clipPath>
</defs>
</svg>
